<?xml version="1.0" encoding="utf-8"?>
<svg xmlns="http://www.w3.org/2000/svg" style="margin: auto; background: none; display: block; shape-rendering: auto; animation-play-state: running; animation-delay: 0s;" width="286" height="59" preserveAspectRatio="xMidYMid">
<style type="text/css" style="animation-play-state: running; animation-delay: 0s;">
  text {
    text-anchor: middle; font-size: 42px; opacity: 0;
  }
</style>
<g style="transform-origin: 143px 29.5px; transform: scale(0.913043); animation-play-state: running; animation-delay: 0s;">
<g transform="translate(143,29.5)" style="animation-play-state: running; animation-delay: 0s;">
  <g transform="translate(0,0)" style="animation-play-state: running; animation-delay: 0s;"><g class="path" style="transform: scale(0.91); transform-origin: -119.715px 1.7415px; animation: 1s linear -0.605s infinite normal forwards running breath-574fa194-3d42-4ddb-93e2-e29a00067d0c;"><path d="M3.77-14.26L3.77-14.26L3.77-14.26Q3.77-20.84 10.65-24.43L10.65-24.43L10.65-24.43Q17.53-28.01 30.08-28.01L30.08-28.01L30.08-28.01Q37.21-28.01 40.53-25.85L40.53-25.85L40.53-25.85Q43.84-23.69 43.84-19.96L43.84-19.96L43.84-19.96Q43.84-16.84 41.70-14.35L41.70-14.35L41.70-14.35Q39.56-11.87 35.70-10.67L35.70-10.67L35.70-10.67Q44.16-9.71 44.16-4.74L44.16-4.74L44.16-4.74Q44.16-2.16 42.34-0.44L42.34-0.44L42.34-0.44Q40.53 1.29 37.54 2.02L37.54 2.02L37.54 2.02Q32.48 3.27 27.14 3.27L27.14 3.27L27.14 2.35L27.14 2.35Q28.20 2.44 29.16 2.44L29.16 2.44L29.16 2.44Q33.76 2.44 36.11 0.83L36.11 0.83L36.11 0.83Q38.96-1.15 38.96-4.37L38.96-4.37L38.96-4.37Q38.96-6.21 37.84-7.66L37.84-7.66L37.84-7.66Q36.71-9.11 35.60-9.66L35.60-9.66L34.45-10.21L34.45-10.21Q32.98-9.89 31.14-9.89L31.14-9.89L31.14-10.81L31.14-10.81Q35.56-10.81 39.19-13.34L39.19-13.34L39.19-13.34Q42.83-15.87 42.83-19.96L42.83-19.96L42.83-19.96Q42.83-23.37 39.63-25.23L39.63-25.23L39.63-25.23Q36.43-27.09 30.50-27.14L30.50-27.14L30.50-27.14Q27.97-10.03 26.63-3.59L26.63-3.59L26.63-3.59Q25.71 1.38 22.03 4.21L22.03 4.21L22.03 4.21Q18.35 7.04 14.17 7.04L14.17 7.04L14.17 6.16L14.17 6.16Q15.96 6.03 16.81 5.77L16.81 5.77L16.81 5.77Q17.66 5.52 18.26 4.71L18.26 4.71L18.26 4.71Q18.86 3.91 19.14 2.81L19.14 2.81L19.14 2.81Q19.64 0.55 19.92-1.47L19.92-1.47L24.33-26.91L24.33-26.91Q14.90-26.13 9.78-22.84L9.78-22.84L9.78-22.84Q4.65-19.55 4.65-14.26L4.65-14.26L4.65-14.26Q4.65-11.87 6.30-10.21L6.30-10.21L6.30-10.21Q7.45-9.11 9.34-8.53L9.34-8.53L9.34-8.53Q11.22-7.96 12.44-7.89L12.44-7.89L12.44-7.89Q13.66-7.82 13.75-7.91L13.75-7.91L13.75-6.95L13.75-6.95Q8.33-6.95 5.70-9.52L5.70-9.52L5.70-9.52Q3.77-11.32 3.77-14.26" fill="#202020" stroke="none" stroke-width="none" transform="translate(-143.67999267578125,12.226500193277987)" style="fill: rgb(32, 32, 32); animation-play-state: running; animation-delay: 0s;"></path></g><g class="path" style="transform: scale(0.91); transform-origin: -86px -2.4735px; animation: 1s linear -0.55s infinite normal forwards running breath-574fa194-3d42-4ddb-93e2-e29a00067d0c;"><path d="M65.04-0.51L65.04-0.51L65.04-0.51Q66.15-0.51 67.34-1.79L67.34-1.79L68.03-1.24L68.03-1.24Q67.71-0.60 66.61-0.09L66.61-0.09L66.61-0.09Q65.50 0.41 64.17 0.41L64.17 0.41L64.17 0.41Q59.98 0.41 59.98-3.36L59.98-3.36L59.98-3.36Q59.98-4.97 60.81-9.11L60.81-9.11L60.81-9.11Q61.64-13.25 61.64-14.54L61.64-14.54L61.64-14.54Q61.64-16.51 59.75-16.51L59.75-16.51L59.75-16.51Q58.19-16.51 56.74-14.40L56.74-14.40L56.74-14.40Q55.29-12.28 54.37-8.65L54.37-8.65L52.85 0L47.33 0L52.44-28.89L52.44-28.89Q51.06-28.75 50.14-27.60L50.14-27.60L49.45-28.15L49.45-28.15Q50.83-29.81 52.92-29.81L52.92-29.81L52.92-29.81Q55.02-29.81 56.17-28.75L56.17-28.75L56.17-28.75Q57.32-27.69 57.32-25.76L57.32-25.76L57.32-25.76Q57.32-25.39 57.22-24.56L57.22-24.56L55.29-13.66L55.29-13.66Q57.18-17.89 61.13-17.89L61.13-17.89L61.13-17.89Q63.85-17.89 65.37-16.35L65.37-16.35L65.37-16.35Q66.88-14.81 66.88-12.10L66.88-12.10L66.88-12.10Q66.88-10.67 66.01-6.60L66.01-6.60L66.01-6.60Q65.14-2.53 65.04-0.51" fill="#202020" stroke="none" stroke-width="none" transform="translate(-143.67999267578125,12.226500193277987)" style="fill: rgb(63, 63, 63); animation-play-state: running; animation-delay: 0s;"></path></g><g class="path" style="transform: scale(0.91); transform-origin: -64.465px 3.4865px; animation: 1s linear -0.495s infinite normal forwards running breath-574fa194-3d42-4ddb-93e2-e29a00067d0c;"><path d="M77.42 0.41L77.42 0.41Q73.88 0.41 72.04-1.36L72.04-1.36L72.04-1.36Q70.20-3.13 70.20-5.82L70.20-5.82L70.20-5.82Q70.20-8.51 70.68-10.42L70.68-10.42L70.68-10.42Q71.16-12.33 72.27-14.10L72.27-14.10L72.27-14.10Q73.37-15.87 75.60-16.88L75.60-16.88L75.60-16.88Q77.83-17.89 81.17-17.89L81.17-17.89L81.17-17.89Q84.50-17.89 86.36-16.12L86.36-16.12L86.36-16.12Q88.23-14.35 88.23-11.27L88.23-11.27L88.23-11.27Q88.23-6.03 85.44-2.81L85.44-2.81L85.44-2.81Q82.66 0.41 77.42 0.41L77.42 0.41zM75.39-4.32L75.39-4.32L75.39-4.32Q75.39-0.64 77.53-0.64L77.53-0.64L77.53-0.64Q79.67-0.64 81.35-4.35L81.35-4.35L81.35-4.35Q83.03-8.05 83.03-13.16L83.03-13.16L83.03-13.16Q83.03-17.02 80.94-17.02L80.94-17.02L80.94-17.02Q78.84-17.02 77.12-13.50L77.12-13.50L77.12-13.50Q75.39-9.98 75.39-4.32" fill="#202020" stroke="none" stroke-width="none" transform="translate(-143.67999267578125,12.226500193277987)" style="fill: rgb(112, 112, 112); animation-play-state: running; animation-delay: 0s;"></path></g><g class="path" style="transform: scale(0.91); transform-origin: -43.815px 6.5215px; animation: 1s linear -0.44s infinite normal forwards running breath-574fa194-3d42-4ddb-93e2-e29a00067d0c;"><path d="M99.68 0.37L99.68 0.37L99.68 0.37Q97.57 0.37 96.32-0.60L96.32-0.60L94.94 6.81L89.47 6.81L93.79-17.30L93.79-17.30Q92.41-17.16 91.49-16.01L91.49-16.01L90.80-16.56L90.80-16.56Q92.18-18.22 94.23-18.22L94.23-18.22L94.23-18.22Q96.28-18.22 97.43-17.23L97.43-17.23L97.43-17.23Q98.58-16.24 98.67-14.44L98.67-14.44L98.67-14.44Q100.69-17.89 103.82-17.89L103.82-17.89L103.82-17.89Q106.95-17.89 108.61-16.12L108.61-16.12L108.61-16.12Q110.26-14.35 110.26-11.27L110.26-11.27L110.26-11.27Q110.26-5.84 107.32-2.74L107.32-2.74L107.32-2.74Q104.37 0.37 99.68 0.37zM98.30-11.45L96.65-2.44L96.65-2.44Q97.43-0.69 99.61-0.69L99.61-0.69L99.61-0.69Q101.80-0.69 103.43-4.37L103.43-4.37L103.43-4.37Q105.06-8.05 105.06-13.16L105.06-13.16L105.06-13.16Q105.06-15.27 104.63-16.05L104.63-16.05L104.63-16.05Q104.19-16.84 103.04-16.84L103.04-16.84L103.04-16.84Q101.89-16.84 100.67-15.46L100.67-15.46L100.67-15.46Q99.45-14.08 98.90-12.86L98.90-12.86L98.90-12.86Q98.35-11.64 98.35-11.45L98.35-11.45L98.30-11.45" fill="#202020" stroke="none" stroke-width="none" transform="translate(-143.67999267578125,12.226500193277987)" style="fill: rgb(255, 223, 108); animation-play-state: running; animation-delay: 0s;"></path></g><g class="path" style="transform: scale(0.91); transform-origin: -21.225px 3.4865px; animation: 1s linear -0.385s infinite normal forwards running breath-574fa194-3d42-4ddb-93e2-e29a00067d0c;"><path d="M128.75 0.41L128.75 0.41L128.75 0.41Q124.71 0.41 124.34-3.13L124.34-3.13L124.34-3.13Q122.31 0.41 119.23 0.41L119.23 0.41L119.23 0.41Q116.15 0.41 114.33-1.45L114.33-1.45L114.33-1.45Q112.52-3.31 112.52-6.67L112.52-6.67L112.52-6.67Q112.52-11.91 115.09-14.90L115.09-14.90L115.09-14.90Q117.67-17.89 121.76-17.89L121.76-17.89L121.76-17.89Q125.12-17.89 126.22-14.72L126.22-14.72L126.22-14.72Q126.45-16.10 126.73-17.48L126.73-17.48L126.73-17.48Q130.13-17.48 131.79-17.76L131.79-17.76L132.39-17.89L129.21-0.51L129.21-0.51Q130.59-0.64 131.51-1.79L131.51-1.79L132.20-1.24L132.20-1.24Q130.82 0.41 128.75 0.41zM117.71-4.32L117.71-4.32Q117.71-2.25 118.24-1.45L118.24-1.45L118.24-1.45Q118.77-0.64 119.88-0.64L119.88-0.64L119.88-0.64Q120.98-0.64 122.13-1.84L122.13-1.84L122.13-1.84Q123.65-3.40 124.57-5.80L124.57-5.80L124.57-5.80Q124.71-6.39 125.10-8.67L125.10-8.67L125.10-8.67Q125.49-10.95 125.76-12.42L125.76-12.42L125.76-12.42Q125.63-14.17 124.80-15.46L124.80-15.46L124.80-15.46Q123.97-16.74 122.73-16.74L122.73-16.74L122.73-16.74Q120.47-16.74 119.09-12.72L119.09-12.72L119.09-12.72Q117.71-8.69 117.71-4.32L117.71-4.32" fill="#202020" stroke="none" stroke-width="none" transform="translate(-143.67999267578125,12.226500193277987)" style="fill: rgb(32, 32, 32); animation-play-state: running; animation-delay: 0s;"></path></g><g class="path" style="transform: scale(0.91); transform-origin: -2.24999px -2.4735px; animation: 1s linear -0.33s infinite normal forwards running breath-574fa194-3d42-4ddb-93e2-e29a00067d0c;"><path d="M143.20-1.66L143.20-1.66L143.20-1.66Q142.60-0.87 141.56-0.23L141.56-0.23L141.56-0.23Q140.53 0.41 138.87 0.41L138.87 0.41L138.87 0.41Q137.22 0.41 136.07-0.64L136.07-0.64L136.07-0.64Q134.92-1.70 134.92-3.63L134.92-3.63L134.92-3.63Q134.92-4.00 135.01-4.83L135.01-4.83L138-21.39L138-21.39Q138.83-25.94 140.28-27.88L140.28-27.88L140.28-27.88Q141.73-29.81 144.12-29.81L144.12-29.81L144.12-29.81Q145.77-29.81 146.85-28.57L146.85-28.57L146.85-28.57Q147.94-27.32 147.94-24.79L147.94-24.79L147.94-24.79Q147.94-22.26 145.98-17.57L145.98-17.57L145.98-17.57Q144.03-12.88 144.03-10.72L144.03-10.72L143.20-10.72L143.20-10.72Q143.20-13.16 145.13-17.69L145.13-17.69L145.13-17.69Q147.06-22.22 147.06-24.93L147.06-24.93L147.06-24.93Q147.06-26.59 146.30-27.78L146.30-27.78L146.30-27.78Q145.54-28.98 144.44-28.98L144.44-28.98L144.44-28.98Q144.39-27.78 142.85-18.24L142.85-18.24L142.85-18.24Q141.31-8.69 139.79-0.51L139.79-0.51L139.79-0.51Q141.08-0.51 142.19-1.84L142.19-1.84L142.19-1.84Q143.29-3.17 143.75-4.51L143.75-4.51L144.26-5.89L145.08-5.52L145.08-5.52Q144.95-4.88 144.37-3.66L144.37-3.66L144.37-3.66Q143.80-2.44 143.20-1.66" fill="#202020" stroke="none" stroke-width="none" transform="translate(-143.67999267578125,12.226500193277987)" style="fill: rgb(63, 63, 63); animation-play-state: running; animation-delay: 0s;"></path></g><g class="path" style="transform: scale(0.91); transform-origin: 13.665px 3.3515px; animation: 1s linear -0.275s infinite normal forwards running breath-574fa194-3d42-4ddb-93e2-e29a00067d0c;"><path d="M166.20-9.29L166.11-8.46L148.49-8.46L148.58-9.29L166.20-9.29" fill="#202020" stroke="none" stroke-width="none" transform="translate(-143.67999267578125,12.226500193277987)" style="fill: rgb(112, 112, 112); animation-play-state: running; animation-delay: 0s;"></path></g><g class="path" style="transform: scale(0.91); transform-origin: 47.355px 2.1065px; animation: 1s linear -0.22s infinite normal forwards running breath-574fa194-3d42-4ddb-93e2-e29a00067d0c;"><path d="M193.94-25.44L193.94-25.44L193.94-25.44Q190.30-27.00 186.05-27.00L186.05-27.00L186.05-27.00Q181.79-27.00 179.15-24.29L179.15-24.29L179.15-24.29Q176.50-21.57 176.50-17.20L176.50-17.20L175.49-17.20L175.49-17.20Q175.49-21.99 178.43-25.00L178.43-25.00L178.43-25.00Q181.38-28.01 185.98-28.01L185.98-28.01L185.98-28.01Q189.66-28.01 193.94-26.59L193.94-26.59L193.94-26.59Q198.86-24.79 204.61-24.79L204.61-24.79L204.61-23.83L204.61-23.83Q201.16-23.83 199.09-24.15L199.09-24.15L199.09-24.15Q199.04-23.97 198.77-22.63L198.77-22.63L198.77-22.63Q197.06-15.09 196.01-10.63L196.01-10.63L208.33-10.63L213.03-30.59L213.99-30.59L207.55-2.94L207.55-2.94Q207.14-1.24 207.14-0.64L207.14-0.64L207.14-0.64Q207.14 1.29 208.93 1.29L208.93 1.29L208.93 1.29Q210.22 1.29 211.19-0.05L211.19-0.05L211.83 0.51L211.83 0.51Q211.51 1.10 210.68 1.63L210.68 1.63L210.68 1.63Q209.85 2.16 208.68 2.16L208.68 2.16L208.68 2.16Q207.51 2.16 206.84 1.38L206.84 1.38L206.84 1.38Q206.17 0.60 206.17-0.51L206.17-0.51L206.72-3.54L208.15-9.80L195.78-9.80L195.78-9.80Q195.27-7.87 194.76-5.61L194.76-5.61L194.76-5.61Q194.26-3.36 193.55-1.20L193.55-1.20L193.55-1.20Q192.83 0.97 191.59 3.27L191.59 3.27L191.59 3.27Q190.35 5.57 188.81 7.01L188.81 7.01L188.81 7.01Q187.27 8.46 184.94 9.41L184.94 9.41L184.94 9.41Q182.62 10.35 179.93 10.35L179.93 10.35L179.93 10.35Q177.24 10.35 174.85 9.34L174.85 9.34L174.85 9.34Q172.45 8.33 170.84 6.53L170.84 6.53L170.84 6.53Q168.08 3.36 168.08-1.15L168.08-1.15L168.08-1.15Q168.08-1.89 168.13-2.62L168.13-2.62L169.14-2.48L169.14-2.48Q169.10-1.84 169.10-1.20L169.10-1.20L169.10-1.20Q169.10 3.08 171.70 5.96L171.70 5.96L171.70 5.96Q174.29 8.83 178.71 8.83L178.71 8.83L178.71 8.83Q183.13 8.83 184.92 6.49L184.92 6.49L184.92 6.49Q186.71 4.14 188.35-2.53L188.35-2.53L188.35-2.53Q189.98-9.20 193.94-25.44" fill="#202020" stroke="none" stroke-width="none" transform="translate(-143.67999267578125,12.226500193277987)" style="fill: rgb(255, 223, 108); animation-play-state: running; animation-delay: 0s;"></path></g><g class="path" style="transform: scale(0.91); transform-origin: 81.355px 3.4865px; animation: 1s linear -0.165s infinite normal forwards running breath-574fa194-3d42-4ddb-93e2-e29a00067d0c;"><path d="M231.33 0.41L231.33 0.41L231.33 0.41Q227.29 0.41 226.92-3.13L226.92-3.13L226.92-3.13Q224.89 0.41 221.81 0.41L221.81 0.41L221.81 0.41Q218.73 0.41 216.91-1.45L216.91-1.45L216.91-1.45Q215.10-3.31 215.10-6.67L215.10-6.67L215.10-6.67Q215.10-11.91 217.67-14.90L217.67-14.90L217.67-14.90Q220.25-17.89 224.34-17.89L224.34-17.89L224.34-17.89Q227.70-17.89 228.80-14.72L228.80-14.72L228.80-14.72Q229.03-16.10 229.31-17.48L229.31-17.48L229.31-17.48Q232.71-17.48 234.37-17.76L234.37-17.76L234.97-17.89L231.79-0.51L231.79-0.51Q233.17-0.64 234.09-1.79L234.09-1.79L234.78-1.24L234.78-1.24Q233.40 0.41 231.33 0.41zM220.29-4.32L220.29-4.32Q220.29-2.25 220.82-1.45L220.82-1.45L220.82-1.45Q221.35-0.64 222.46-0.64L222.46-0.64L222.46-0.64Q223.56-0.64 224.71-1.84L224.71-1.84L224.71-1.84Q226.23-3.40 227.15-5.80L227.15-5.80L227.15-5.80Q227.29-6.39 227.68-8.67L227.68-8.67L227.68-8.67Q228.07-10.95 228.34-12.42L228.34-12.42L228.34-12.42Q228.21-14.17 227.38-15.46L227.38-15.46L227.38-15.46Q226.55-16.74 225.31-16.74L225.31-16.74L225.31-16.74Q223.05-16.74 221.67-12.72L221.67-12.72L221.67-12.72Q220.29-8.69 220.29-4.32L220.29-4.32" fill="#202020" stroke="none" stroke-width="none" transform="translate(-143.67999267578125,12.226500193277987)" style="fill: rgb(32, 32, 32); animation-play-state: running; animation-delay: 0s;"></path></g><g class="path" style="transform: scale(0.91); transform-origin: 102.005px 3.4865px; animation: 1s linear -0.11s infinite normal forwards running breath-574fa194-3d42-4ddb-93e2-e29a00067d0c;"><path d="M248.45-9.61L248.45-9.61L248.45-9.61Q247.48-10.58 247.48-11.96L247.48-11.96L247.48-11.96Q247.48-13.34 248.45-14.33L248.45-14.33L248.45-14.33Q249.41-15.32 250.79-15.32L250.79-15.32L250.79-15.32Q251.21-15.32 251.85-15.13L251.85-15.13L251.85-15.13Q250.98-16.74 248.58-16.74L248.58-16.74L248.58-16.74Q246.19-16.74 244.35-13.71L244.35-13.71L244.35-13.71Q242.51-10.67 242.51-4.69L242.51-4.69L242.51-4.69Q242.51-2.62 243.46-1.63L243.46-1.63L243.46-1.63Q244.40-0.64 245.82-0.64L245.82-0.64L245.82-0.64Q247.25-0.64 248.42-1.20L248.42-1.20L248.42-1.20Q249.60-1.75 250.29-2.51L250.29-2.51L250.29-2.51Q250.98-3.27 251.48-4.09L251.48-4.09L251.48-4.09Q252.40-5.61 252.40-6.03L252.40-6.03L253.23-5.66L253.23-5.66Q253.09-4.92 252.40-3.70L252.40-3.70L252.40-3.70Q251.71-2.48 250.88-1.70L250.88-1.70L250.88-1.70Q250.06-0.92 248.45-0.25L248.45-0.25L248.45-0.25Q246.84 0.41 244.86 0.41L244.86 0.41L244.86 0.41Q241.13 0.41 239.22-1.36L239.22-1.36L239.22-1.36Q237.31-3.13 237.31-6.21L237.31-6.21L237.31-6.21Q237.31-11.68 240.05-14.79L240.05-14.79L240.05-14.79Q242.79-17.89 247.48-17.89L247.48-17.89L247.48-17.89Q250.65-17.89 252.36-16.28L252.36-16.28L252.36-16.28Q254.06-14.67 254.06-12.05L254.06-12.05L254.06-12.05Q254.06-10.40 253.07-9.52L253.07-9.52L253.07-9.52Q252.08-8.65 250.75-8.65L250.75-8.65L250.75-8.65Q249.41-8.65 248.45-9.61" fill="#202020" stroke="none" stroke-width="none" transform="translate(-143.67999267578125,12.226500193277987)" style="fill: rgb(63, 63, 63); animation-play-state: running; animation-delay: 0s;"></path></g><g class="path" style="transform: scale(0.91); transform-origin: 121.805px -2.4735px; animation: 1s linear -0.055s infinite normal forwards running breath-574fa194-3d42-4ddb-93e2-e29a00067d0c;"><path d="M262.61-8.88L262.61-8.88L260.96 0L255.48 0L260.68-28.89L260.68-28.89Q259.30-28.75 258.38-27.60L258.38-27.60L257.69-28.15L257.69-28.15Q259.07-29.81 261.17-29.81L261.17-29.81L261.17-29.81Q263.26-29.81 264.41-28.75L264.41-28.75L264.41-28.75Q265.56-27.69 265.56-25.76L265.56-25.76L265.56-25.76Q265.56-25.39 265.47-24.56L265.47-24.56L265.47-24.56Q264.41-18.72 263.17-11.96L263.17-11.96L263.17-11.96Q264.32-14.77 266.48-16.33L266.48-16.33L266.48-16.33Q268.64-17.89 271.08-17.89L271.08-17.89L271.08-17.89Q273.52-17.89 274.50-16.93L274.50-16.93L274.50-16.93Q275.49-15.96 275.49-14.51L275.49-14.51L275.49-14.51Q275.49-13.06 274.62-12.14L274.62-12.14L274.62-12.14Q273.75-11.22 272.34-11.22L272.34-11.22L272.34-11.22Q270.94-11.22 270.18-12.03L270.18-12.03L270.18-12.03Q269.42-12.83 269.42-14.42L269.42-14.42L269.42-14.42Q269.42-16.01 270.53-16.84L270.53-16.84L270.53-16.84Q266.11-16.33 263.49-10.30L263.49-10.30L263.49-10.30Q264.13-10.40 264.59-10.40L264.59-10.40L264.59-10.40Q267.03-10.40 268.43-9.43L268.43-9.43L268.43-9.43Q269.84-8.46 270.25-7.06L270.25-7.06L270.25-7.06Q270.66-5.66 270.85-4.25L270.85-4.25L270.85-4.25Q271.03-2.85 271.45-1.89L271.45-1.89L271.45-1.89Q271.86-0.92 272.92-0.92L272.92-0.92L272.92-0.92Q273.98-0.92 274.57-1.79L274.57-1.79L275.26-1.24L275.26-1.24Q274.94-0.60 273.84-0.09L273.84-0.09L273.84-0.09Q272.73 0.41 271.01 0.41L271.01 0.41L271.01 0.41Q269.28 0.41 267.97-0.46L267.97-0.46L267.97-0.46Q266.66-1.33 266.16-2.65L266.16-2.65L266.16-2.65Q265.65-3.96 265.33-5.24L265.33-5.24L265.33-5.24Q264.45-8.56 262.61-8.88" fill="#202020" stroke="none" stroke-width="none" transform="translate(-143.67999267578125,12.226500193277987)" style="fill: rgb(112, 112, 112); animation-play-state: running; animation-delay: 0s;"></path></g><g class="path" style="transform: scale(0.91); transform-origin: 139.77px 2.4265px; animation: 1s linear 0s infinite normal forwards running breath-574fa194-3d42-4ddb-93e2-e29a00067d0c;"><path d="M281.20-0.78L281.20-0.78L281.20-0.78Q285.75-0.78 285.75-7.50L285.75-7.50L285.75-7.50Q285.75-9.15 285.27-11.41L285.27-11.41L285.27-11.41Q284.79-13.66 284.69-14.21L284.69-14.21L284.69-14.21Q281.89-11.32 278.39-10.72L278.39-10.72L278.39-11.82L278.39-11.82Q281.70-12.56 284.60-15.59L284.60-15.59L284.60-15.78L284.60-15.78Q284.60-16.88 284.92-17.94L284.92-17.94L284.92-17.94Q285.25-19.00 285.57-19.50L285.57-19.50L285.89-20.01L286.99-20.01L286.99-20.01Q286.99-17.99 287.64-16.31L287.64-16.31L287.64-16.31Q288.28-14.63 289.06-13.59L289.06-13.59L289.06-13.59Q289.85-12.56 290.49-10.88L290.49-10.88L290.49-10.88Q291.13-9.20 291.13-7.18L291.13-7.18L291.13-7.18Q291.13-3.91 288.67-1.75L288.67-1.75L288.67-1.75Q286.21 0.41 282.76 0.41L282.76 0.41L282.76 0.41Q279.31 0.41 277.54-1.15L277.54-1.15L277.54-1.15Q275.77-2.71 275.77-4.76L275.77-4.76L275.77-4.76Q275.77-6.81 276.78-7.71L276.78-7.71L276.78-7.71Q277.79-8.60 279.17-8.60L279.17-8.60L279.17-8.60Q280.55-8.60 281.45-7.71L281.45-7.71L281.45-7.71Q282.35-6.81 282.35-5.41L282.35-5.41L282.35-5.41Q282.35-4.00 281.47-3.04L281.47-3.04L281.47-3.04Q280.60-2.07 279.22-2.07L279.22-2.07L279.22-2.07Q278.62-2.07 277.98-2.25L277.98-2.25L277.98-2.25Q278.99-0.78 281.20-0.78" fill="#202020" stroke="none" stroke-width="none" transform="translate(-143.67999267578125,12.226500193277987)" style="fill: rgb(255, 223, 108); animation-play-state: running; animation-delay: 0s;"></path></g></g>
</g>
</g>
<style id="breath-574fa194-3d42-4ddb-93e2-e29a00067d0c" data-anikit="">@keyframes breath-574fa194-3d42-4ddb-93e2-e29a00067d0c
{
  0% {
    animation-timing-function: cubic-bezier(0.9647,0.2413,-0.0705,0.7911);
    transform: scale(0.9099999999999999);
  }
  51% {
    animation-timing-function: cubic-bezier(0.9226,0.2631,-0.0308,0.7628);
    transform: scale(1.02994);
  }
  100% {
    transform: scale(0.9099999999999999);
  }
}</style></svg>